<svg width="2057" height="502" viewBox="0 0 2057 502" fill="none" xmlns="http://www.w3.org/2000/svg">
<path d="M142.188 477.49C144.01 477.49 146.403 477.262 149.365 476.807C152.555 476.351 159.163 474.414 169.189 470.996C179.443 467.35 189.811 462.451 200.293 456.299C210.775 450.146 223.649 440.462 238.916 427.246C254.183 413.802 269.108 397.965 283.691 379.736H287.451L261.133 495.605H18.1152V495.264H0V481.934H8.54492C9.45638 481.706 10.7096 481.364 12.3047 480.908C14.1276 480.452 17.0898 478.857 21.1914 476.123C25.5208 473.161 29.2806 469.515 32.4707 465.186C35.8887 460.628 39.0788 453.678 42.041 444.336C45.0033 434.993 46.7122 424.284 47.168 412.207V88.8672C46.4844 75.8789 44.6615 64.5996 41.6992 55.0293C38.9648 45.459 35.7747 38.5091 32.1289 34.1797C28.4831 29.8503 24.8372 26.4323 21.1914 23.9258C17.7734 21.4193 14.8112 20.0521 12.3047 19.8242L8.54492 19.4824H0V5.81055H261.133L287.451 122.021H283.691C269.108 103.792 254.297 88.0697 239.258 74.8535C224.219 61.4095 211.117 51.6113 199.951 45.459C188.786 39.3066 178.646 34.4076 169.531 30.7617C160.645 27.1159 153.923 25.0651 149.365 24.6094L142.188 23.9258C140.82 23.6979 138.883 23.584 136.377 23.584C134.098 23.3561 129.997 23.3561 124.072 23.584C118.148 23.8118 112.907 24.4954 108.35 25.6348C103.792 26.5462 99.5768 28.4831 95.7031 31.4453C92.0573 34.4076 90.2344 38.0534 90.2344 42.3828L88.8672 89.209V184.912L205.762 177.051L202.686 199.609L202.344 203.027L198.926 226.27L197.9 231.738H196.533C184.456 219.661 167.822 210.775 146.631 205.078C125.667 199.382 106.413 196.191 88.8672 195.508V412.207C88.6393 423.828 88.5254 433.171 88.5254 440.234C88.5254 447.982 90.3483 454.59 93.9941 460.059C97.8678 465.527 102.425 469.401 107.666 471.68C112.907 473.73 118.148 475.326 123.389 476.465C128.63 477.376 133.073 477.832 136.719 477.832L142.188 477.49ZM399.916 241.65L400.6 232.764C435.691 235.27 465.313 226.497 489.467 206.445C513.62 186.393 525.925 159.847 526.381 126.807C526.609 107.438 522.963 90.1204 515.443 74.8535C508.152 59.3587 498.126 47.3958 485.365 38.9648C472.605 30.5339 457.794 24.8372 440.932 21.875C424.298 18.6849 406.752 19.8242 388.295 25.293L389.32 411.865C388.865 432.829 390.118 448.438 393.08 458.691C396.27 468.945 401.055 475.667 407.436 478.857C414.044 481.82 423.842 482.845 436.83 481.934V495.605H301.137V481.934C320.049 483.301 332.924 479.313 339.76 469.971C346.596 460.4 349.558 441.032 348.646 411.865C348.646 200.863 348.533 93.3105 348.305 89.209C348.077 76.6764 346.938 65.9668 344.887 57.0801C343.064 47.9655 340.785 41.1296 338.051 36.5723C335.544 32.015 332.24 28.4831 328.139 25.9766C324.265 23.2422 320.961 21.6471 318.227 21.1914C315.492 20.7357 312.188 20.3939 308.314 20.166C304.441 19.9382 302.048 19.7103 301.137 19.4824V6.15234H343.178C361.635 6.15234 384.763 5.12695 412.562 3.07617C419.854 2.39258 427.146 2.05078 434.438 2.05078C441.729 2.05078 450.16 2.39258 459.73 3.07617C469.301 3.75977 478.415 5.24089 487.074 7.51953C495.733 9.57031 504.62 12.3047 513.734 15.7227C522.849 18.9128 531.052 23.4701 538.344 29.3945C545.863 35.319 552.471 42.1549 558.168 49.9023C564.092 57.6497 568.65 67.2201 571.84 78.6133C575.258 90.0065 576.967 102.539 576.967 116.211C576.967 136.947 571.84 155.632 561.586 172.266C551.56 188.9 538.116 202.344 521.254 212.598C504.62 222.624 485.821 230.257 464.857 235.498C444.122 240.511 422.475 242.562 399.916 241.65ZM817.264 1.70898C859.191 0.569661 898.156 10.7096 934.158 32.1289C970.161 53.3203 998.758 82.7148 1019.95 120.312C1041.37 157.91 1052.31 199.268 1052.76 244.385C1053.22 289.502 1043.31 331.429 1023.03 370.166C1002.75 408.903 974.832 439.893 939.285 463.135C903.966 486.149 865.343 498.226 823.416 499.365C791.743 500.277 761.437 494.58 732.498 482.275C703.787 469.743 678.95 452.767 657.986 431.348C637.023 409.701 620.161 383.724 607.4 353.418C594.868 322.884 588.374 290.755 587.918 257.031C587.462 211.914 597.26 169.987 617.312 131.25C637.592 92.513 665.392 61.5234 700.711 38.2812C736.258 15.0391 775.109 2.84831 817.264 1.70898ZM737.283 455.615C763.715 475.667 792.312 485.352 823.074 484.668C853.836 483.984 882.205 472.933 908.182 451.514C934.158 429.867 954.552 401.042 969.363 365.039C984.174 328.809 991.352 289.616 990.896 247.461C990.441 216.016 985.542 186.051 976.199 157.568C966.857 129.085 954.438 104.704 938.943 84.4238C923.449 63.916 905.105 47.8516 883.914 36.2305C862.723 24.3815 840.62 18.7988 817.605 19.4824C786.844 20.166 758.475 31.2174 732.498 52.6367C706.521 74.056 686.128 102.881 671.316 139.111C656.505 175.114 649.327 214.193 649.783 256.348C650.239 298.503 658.328 337.24 674.051 372.559C689.773 407.878 710.851 435.563 737.283 455.615ZM1456.78 362.646H1470.79C1462.13 387.484 1451.31 409.131 1438.32 427.588C1425.56 445.817 1411.78 459.945 1396.96 469.971C1382.15 479.997 1367.46 487.402 1352.87 492.188C1338.52 496.745 1323.93 499.251 1309.12 499.707C1277.45 500.618 1247.14 494.922 1218.21 482.617C1189.49 470.085 1164.66 453.109 1143.69 431.689C1122.73 410.042 1105.87 384.066 1093.11 353.76C1080.57 323.226 1074.08 291.097 1073.62 257.373C1073.17 212.256 1082.97 170.329 1103.02 131.592C1123.3 92.8548 1151.1 61.8652 1186.42 38.623C1221.96 15.3809 1260.82 3.1901 1302.97 2.05078C1333.5 1.13932 1359.71 3.5319 1381.58 9.22852C1403.69 14.9251 1424.08 25.293 1442.77 40.332L1444.47 166.113H1431.83C1431.37 164.062 1430.57 161.328 1429.44 157.91C1428.3 154.264 1425.68 147.314 1421.57 137.061C1417.7 126.579 1413.37 116.667 1408.59 107.324C1404.03 97.9818 1397.99 87.6139 1390.47 76.2207C1382.95 64.8275 1374.98 55.0293 1366.54 46.8262C1358.34 38.623 1348.43 31.6732 1336.81 25.9766C1325.42 20.2799 1313.68 17.4316 1301.6 17.4316C1270.84 17.4316 1242.47 28.3691 1216.5 50.2441C1190.75 72.1191 1170.58 101.4 1156 138.086C1141.64 174.772 1134.69 214.307 1135.15 256.689C1135.6 298.617 1143.69 336.556 1159.42 370.508C1175.37 404.46 1196.44 430.778 1222.65 449.463C1249.08 467.92 1277.79 476.693 1308.78 475.781C1318.35 475.553 1327.81 474.642 1337.15 473.047C1346.49 471.224 1357.09 467.92 1368.94 463.135C1381.01 458.122 1392.07 451.628 1402.09 443.652C1412.35 435.677 1422.37 424.74 1432.17 410.84C1441.97 396.94 1450.17 380.876 1456.78 362.646ZM1670.76 5.81055H1806.45V19.4824H1797.56C1796.65 19.4824 1795.4 19.5964 1793.8 19.8242C1792.21 20.0521 1789.25 21.4193 1784.92 23.9258C1780.82 26.4323 1777.06 29.8503 1773.64 34.1797C1770.45 38.5091 1767.37 45.459 1764.41 55.0293C1761.45 64.3717 1759.62 75.5371 1758.94 88.5254V413.232C1759.62 426.221 1761.33 437.5 1764.07 447.07C1767.03 456.413 1770.33 463.363 1773.98 467.92C1777.63 472.249 1781.16 475.667 1784.58 478.174C1788.22 480.68 1791.3 482.048 1793.8 482.275L1797.56 482.617H1806.45V496.289H1670.76V482.617H1679.3C1680.21 482.617 1681.47 482.503 1683.06 482.275C1684.66 482.048 1687.51 480.68 1691.61 478.174C1695.94 475.667 1699.7 472.249 1702.89 467.92C1706.3 463.363 1709.49 456.413 1712.46 447.07C1715.42 437.5 1717.24 426.221 1717.93 413.232V202.344H1561.38V412.891C1562.07 425.879 1563.78 437.158 1566.51 446.729C1569.47 456.071 1572.78 463.021 1576.42 467.578C1580.07 471.908 1583.6 475.326 1587.02 477.832C1590.66 480.339 1593.74 481.706 1596.25 481.934L1600.01 482.275H1608.89V495.947H1473.2V482.275H1481.74C1482.66 482.275 1483.91 482.161 1485.5 481.934C1487.1 481.706 1489.95 480.339 1494.05 477.832C1498.38 475.326 1502.14 471.908 1505.33 467.578C1508.75 463.021 1511.94 456.071 1514.9 446.729C1517.86 437.158 1519.68 425.879 1520.37 412.891V88.5254C1519.68 75.5371 1517.86 64.3717 1514.9 55.0293C1512.16 45.459 1508.97 38.5091 1505.33 34.1797C1501.68 29.6224 1498.04 26.0905 1494.39 23.584C1490.97 21.0775 1488.01 19.7103 1485.5 19.4824L1481.74 19.1406H1473.2V5.46875H1608.89V19.1406H1600.01C1599.09 19.1406 1597.84 19.2546 1596.25 19.4824C1594.65 19.7103 1591.69 21.0775 1587.36 23.584C1583.26 26.0905 1579.5 29.6224 1576.08 34.1797C1572.89 38.5091 1569.81 45.459 1566.85 55.0293C1563.89 64.3717 1562.07 75.5371 1561.38 88.5254V186.963H1717.93V88.5254C1717.24 75.5371 1715.42 64.3717 1712.46 55.0293C1709.72 45.459 1706.53 38.5091 1702.89 34.1797C1699.24 29.8503 1695.6 26.4323 1691.95 23.9258C1688.53 21.4193 1685.57 20.0521 1683.06 19.8242L1679.3 19.4824H1670.76V5.81055ZM2054.27 358.887C2056.09 398.535 2044.93 430.892 2020.77 455.957C1996.62 480.794 1963.58 494.124 1921.65 495.947C1909.57 496.631 1893.74 495.036 1874.14 491.162C1866.17 490.023 1859.56 489.567 1854.32 489.795C1849.3 489.795 1845.54 490.137 1843.04 490.82L1839.62 491.504H1835.18L1836.2 473.047L1839.28 378.711H1845.09C1846.68 382.357 1849.3 388.965 1852.95 398.535C1856.82 407.878 1860.13 415.853 1862.86 422.461C1865.6 428.841 1869.47 436.475 1874.48 445.361C1879.5 454.02 1884.39 461.084 1889.18 466.553C1894.19 471.794 1900.35 476.237 1907.64 479.883C1914.93 483.529 1922.56 485.238 1930.54 485.01C1946.03 484.326 1960.05 478.516 1972.58 467.578C1985.34 456.641 1994.79 443.538 2000.95 428.271C2007.33 413.005 2010.18 398.079 2009.49 383.496C2008.58 364.128 2002.88 346.354 1992.4 330.176C1982.15 313.77 1971.67 302.148 1960.96 295.312C1947.29 286.654 1936.46 279.818 1928.49 274.805C1920.74 269.564 1911.74 263.411 1901.48 256.348C1891.46 249.284 1883.71 243.473 1878.24 238.916C1873 234.131 1867.08 228.548 1860.47 222.168C1853.86 215.56 1848.85 209.521 1845.43 204.053C1842.24 198.584 1838.94 192.432 1835.52 185.596C1832.33 178.76 1830.05 171.696 1828.68 164.404C1827.31 156.885 1826.4 148.796 1825.95 140.137C1824.35 103.451 1834.61 71.6634 1856.71 44.7754C1878.81 17.8874 1906.27 3.64583 1939.08 2.05078C1956.17 1.36719 1972.24 3.07617 1987.28 7.17773C1994.57 8.31706 2000.83 8.65885 2006.07 8.20312C2011.32 7.7474 2015.3 6.83594 2018.04 5.46875L2022.48 3.75977L2028.29 3.41797L2028.63 119.629H2021.46C2009.83 82.2591 1998.1 55.485 1986.25 39.3066C1974.4 22.9004 1960.84 15.0391 1945.58 15.7227C1921.65 16.6341 1901.94 25.7487 1886.45 43.0664C1871.18 60.3841 1864.11 81.3477 1865.25 105.957C1867.53 156.315 1903.54 202.23 1973.26 243.701C2003.57 261.702 2024.42 279.704 2035.81 297.705C2047.2 315.706 2053.36 336.1 2054.27 358.887Z" fill="#CCC6B8"/>
</svg>
